# Blender v2.72 (sub 0) OBJ File: 'conifer.blend'
# www.blender.org
mtllib conifer.mtl
o Cone_Cone.002
v 2.800000 0.000000 1.806640
v 0.000000 0.000000 3.066640
v 1.979899 -1.979899 1.806640
v -0.000000 -2.800000 1.806640
v -1.979899 -1.979899 1.806640
v -2.800000 0.000000 1.806640
v -1.979898 1.979899 1.806640
v 0.000000 2.800000 1.806640
v 1.979898 1.979899 1.806640
v 0.294648 0.001879 -0.008245
v -0.000049 -0.000031 10.007420
v -0.159754 -0.215275 -0.008245
v -0.159754 0.264228 -0.008245
v 2.378403 0.000000 3.425842
v 0.000000 0.000000 4.496123
v 1.681785 -1.681785 3.425842
v -0.000000 -2.378403 3.425842
v -1.681785 -1.681785 3.425842
v -2.378403 0.000000 3.425842
v -1.681784 1.681785 3.425842
v 0.000000 2.378403 3.425842
v 1.681784 1.681785 3.425842
v 1.908405 0.000000 5.153232
v 0.000000 0.000000 6.012014
v 1.349446 -1.349446 5.153232
v -0.000000 -1.908405 5.153232
v -1.349446 -1.349446 5.153232
v -1.908405 0.000000 5.153232
v -1.349446 1.349446 5.153232
v 0.000000 1.908405 5.153232
v 1.349446 1.349446 5.153232
v 1.408487 0.000000 6.692758
v 0.000000 0.000000 7.326577
v 0.995950 -0.995950 6.692758
v -0.000000 -1.408487 6.692758
v -0.995950 -0.995950 6.692758
v -1.408487 0.000000 6.692758
v -0.995950 0.995951 6.692758
v 0.000000 1.408487 6.692758
v 0.995950 0.995951 6.692758
v 1.112950 0.000000 7.861969
v 0.000000 0.000000 8.362796
v 0.786974 -0.786974 7.861969
v -0.000000 -1.112950 7.861969
v -0.786974 -0.786974 7.861969
v -1.112950 0.000000 7.861969
v -0.786974 0.786974 7.861969
v 0.000000 1.112950 7.861969
v 0.786974 0.786974 7.861969
v 0.686794 0.000000 8.930840
v 0.000000 0.000000 9.239897
v 0.485636 -0.485636 8.930840
v -0.000000 -0.686794 8.930840
v -0.485636 -0.485636 8.930840
v -0.686794 0.000000 8.930840
v -0.485636 0.485637 8.930840
v 0.000000 0.686794 8.930840
v 0.485636 0.485637 8.930840
v 0.450538 0.000000 9.613860
v 0.000000 0.000000 9.816602
v 0.318579 -0.318579 9.613860
v -0.000000 -0.450538 9.613860
v -0.318579 -0.318579 9.613860
v -0.450538 0.000000 9.613860
v -0.318579 0.318579 9.613860
v 0.000000 0.450538 9.613860
v 0.318579 0.318579 9.613860
vt 0.014488 0.694516
vt 0.501622 0.492739
vt 0.299844 0.979872
vt 0.703399 0.979872
vt 0.988755 0.694516
vt 0.014488 0.290961
vt 0.299845 0.005605
vt 0.703399 0.005605
vt 0.988755 0.290961
vt 0.050989 0.003122
vt 0.010903 0.280687
vt 0.003122 0.006223
vt 0.053401 0.003123
vt 0.008172 0.280687
vt 0.003123 0.003123
vt 0.055502 0.006224
vt 0.009903 0.280686
vt 0.012653 0.697211
vt 0.500935 0.494958
vt 0.298682 0.983240
vt 0.703189 0.983240
vt 0.989218 0.697211
vt 0.012653 0.292704
vt 0.298682 0.006675
vt 0.703189 0.006675
vt 0.989218 0.292704
vt 0.017007 0.695235
vt 0.500863 0.494815
vt 0.300443 0.978671
vt 0.701282 0.978671
vt 0.984719 0.695235
vt 0.017007 0.294396
vt 0.300443 0.010959
vt 0.701283 0.010960
vt 0.984719 0.294396
vt 0.017902 0.699590
vt 0.502707 0.498777
vt 0.301894 0.983582
vt 0.703520 0.983582
vt 0.987512 0.699590
vt 0.017902 0.297965
vt 0.301895 0.013972
vt 0.703520 0.013972
vt 0.987512 0.297964
vt 0.024653 0.295062
vt 0.504517 0.493828
vt 0.024653 0.692594
vt 0.305751 0.973692
vt 0.703283 0.973692
vt 0.305751 0.013964
vt 0.703283 0.013964
vt 0.984381 0.295062
vt 0.984381 0.692594
vt 0.023937 0.692729
vt 0.503013 0.494290
vt 0.304573 0.973365
vt 0.701452 0.973365
vt 0.982088 0.692730
vt 0.023937 0.295851
vt 0.304573 0.015215
vt 0.701453 0.015215
vt 0.982089 0.295851
vt 0.023190 0.296044
vt 0.501820 0.494298
vt 0.023190 0.692553
vt 0.303566 0.972928
vt 0.700076 0.972928
vt 0.303566 0.015668
vt 0.700076 0.015668
vt 0.980450 0.296044
vt 0.980450 0.692553
vn 0.167600 0.404600 0.899000
vn 0.404600 -0.167600 0.899000
vn -0.167600 0.404600 0.899000
vn -0.404600 0.167600 0.899000
vn -0.404600 -0.167600 0.899000
vn -0.167600 -0.404600 0.899000
vn 0.404600 0.167600 0.899000
vn 0.167600 -0.404600 0.899000
vn -0.999900 0.000000 0.015900
vn 0.431100 -0.902200 0.012500
vn 0.499900 0.865900 0.014900
vn -0.000000 0.000000 -1.000000
usemtl None
s off
f 8/1/1 2/2/1 9/3/1
f 1/4/2 2/2/2 3/5/2
f 7/6/3 2/2/3 8/1/3
f 6/7/4 2/2/4 7/6/4
f 5/8/5 2/2/5 6/7/5
f 4/9/6 2/2/6 5/8/6
f 9/3/7 2/2/7 1/4/7
f 3/5/8 2/2/8 4/9/8
f 12/10/9 11/11/9 13/12/9
f 10/13/10 11/14/10 12/15/10
f 13/16/11 11/17/11 10/15/11
f 10/15/12 12/15/12 13/12/12
f 21/18/1 15/19/1 22/20/1
f 14/21/2 15/19/2 16/22/2
f 20/23/3 15/19/3 21/18/3
f 19/24/4 15/19/4 20/23/4
f 18/25/5 15/19/5 19/24/5
f 17/26/6 15/19/6 18/25/6
f 22/20/7 15/19/7 14/21/7
f 16/22/8 15/19/8 17/26/8
f 30/27/1 24/28/1 31/29/1
f 23/30/2 24/28/2 25/31/2
f 29/32/3 24/28/3 30/27/3
f 28/33/4 24/28/4 29/32/4
f 27/34/5 24/28/5 28/33/5
f 26/35/6 24/28/6 27/34/6
f 31/29/7 24/28/7 23/30/7
f 25/31/8 24/28/8 26/35/8
f 39/36/1 33/37/1 40/38/1
f 32/39/2 33/37/2 34/40/2
f 38/41/3 33/37/3 39/36/3
f 37/42/4 33/37/4 38/41/4
f 36/43/5 33/37/5 37/42/5
f 35/44/6 33/37/6 36/43/6
f 40/38/7 33/37/7 32/39/7
f 34/40/8 33/37/8 35/44/8
f 48/45/1 42/46/1 49/47/1
f 41/48/2 42/46/2 43/49/2
f 47/50/3 42/46/3 48/45/3
f 46/51/4 42/46/4 47/50/4
f 45/52/5 42/46/5 46/51/5
f 44/53/6 42/46/6 45/52/6
f 49/47/7 42/46/7 41/48/7
f 43/49/8 42/46/8 44/53/8
f 57/54/1 51/55/1 58/56/1
f 50/57/2 51/55/2 52/58/2
f 56/59/3 51/55/3 57/54/3
f 55/60/4 51/55/4 56/59/4
f 54/61/5 51/55/5 55/60/5
f 53/62/6 51/55/6 54/61/6
f 58/56/7 51/55/7 50/57/7
f 52/58/8 51/55/8 53/62/8
f 66/63/1 60/64/1 67/65/1
f 59/66/2 60/64/2 61/67/2
f 65/68/3 60/64/3 66/63/3
f 64/69/4 60/64/4 65/68/4
f 63/70/5 60/64/5 64/69/5
f 62/71/6 60/64/6 63/70/6
f 67/65/7 60/64/7 59/66/7
f 61/67/8 60/64/8 62/71/8
