# Blender v2.72 (sub 0) OBJ File: 'traffic_pole.blend'
# www.blender.org
mtllib traffic_pole.mtl
o Cylinder
v -0.000000 -0.358056 16.031509
v -0.000000 -7.384240 16.176067
v 0.147803 -0.359857 15.970314
v 0.103775 -7.385505 16.133101
v 0.209025 -0.364207 15.822575
v 0.146760 -7.388558 16.029371
v 0.147803 -0.368556 15.674835
v 0.103775 -7.391612 15.925640
v -0.000000 -0.370358 15.613640
v -0.000000 -7.392877 15.882673
v -0.147803 -0.368556 15.674835
v -0.103775 -7.391613 15.925640
v -0.209025 -0.364207 15.822575
v -0.146760 -7.388558 16.029371
v -0.147803 -0.359857 15.970314
v -0.103775 -7.385505 16.133101
v -0.399338 0.399338 15.378754
v 0.399338 0.399338 15.378754
v 0.399338 -0.443172 15.378754
v -0.399338 -0.443172 15.378754
v -0.399338 0.399338 16.177429
v 0.399338 0.399338 16.177429
v 0.399338 -0.387803 16.177429
v -0.399338 -0.387803 16.177429
v 0.400000 0.000000 1.059113
v 0.325652 0.000000 15.422033
v 0.282843 -0.282843 1.059113
v 0.230271 -0.230271 15.422033
v -0.000000 -0.400000 1.059113
v -0.000000 -0.325652 15.422033
v -0.282843 -0.282843 1.059113
v -0.230271 -0.230271 15.422033
v -0.400000 0.000000 1.059113
v -0.325652 0.000000 15.422033
v -0.282843 0.282843 1.059113
v -0.230270 0.230271 15.422033
v 0.000000 0.400000 1.059113
v 0.000000 0.325652 15.422033
v 0.282843 0.282843 1.059113
v 0.230270 0.230271 15.422033
v -1.000000 1.000000 0.000000
v 1.000000 1.000000 0.000000
v 1.000000 -1.000000 0.000000
v -1.000000 -1.000000 0.000000
v -0.715989 0.715989 1.098847
v 0.715989 0.715989 1.098847
v 0.715989 -0.715989 1.098847
v -0.715989 -0.715989 1.098847
vt 0.847567 0.139319
vt 0.847567 0.628822
vt 0.832268 0.628887
vt 1.000000 0.139337
vt 0.993614 0.628869
vt 0.978041 0.628857
vt 0.963049 0.628869
vt 0.956468 0.139337
vt 0.869357 0.628788
vt 0.875847 0.139363
vt 0.891146 0.139319
vt 0.891146 0.628725
vt 0.906444 0.139363
vt 0.949891 0.628869
vt 0.934899 0.628857
vt 0.935114 0.139319
vt 0.791725 0.297525
vt 0.780027 0.291989
vt 0.780026 0.284166
vt 0.862865 0.628887
vt 0.919326 0.628870
vt 0.912935 0.139337
vt 0.848918 0.119131
vt 0.848918 0.130270
vt 0.832284 0.138163
vt 0.792125 0.000000
vt 0.909731 0.000000
vt 0.909731 0.055635
vt 0.662410 0.337333
vt 0.662410 0.282502
vt 0.780026 0.278638
vt 0.662410 0.393101
vt 0.780151 0.337333
vt 0.662285 0.396016
vt 0.544669 0.396008
vt 0.544669 0.337320
vt 0.544669 0.278638
vt 0.662410 0.278638
vt 0.908162 0.111271
vt 0.792125 0.111271
vt 0.792125 0.055635
vt 0.041995 0.999695
vt 0.008008 1.000000
vt 0.000000 0.000375
vt 0.325823 0.998628
vt 0.291876 0.998134
vt 0.291876 0.000000
vt 0.257930 0.998628
vt 0.250179 0.000606
vt 0.158778 1.000000
vt 0.124791 0.999695
vt 0.125040 0.000000
vt 0.090885 1.000000
vt 0.083393 0.000375
vt 0.242429 0.999934
vt 0.208483 0.999617
vt 0.208483 0.000000
vt 0.531231 0.390665
vt 0.531231 0.408027
vt 0.505250 0.420303
vt 0.075901 1.000000
vt 0.041746 0.000000
vt 0.174536 0.999934
vt 0.166786 0.000390
vt 0.410617 0.378388
vt 0.442525 0.393468
vt 0.442522 0.414793
vt 0.498227 0.159103
vt 0.662035 0.139319
vt 0.662035 0.278638
vt 0.628382 0.019737
vt 0.792125 0.139318
vt 0.333573 0.159103
vt 0.498227 0.139319
vt 0.498227 0.278638
vt 0.825778 0.258806
vt 0.333573 0.000000
vt 0.628382 0.000000
vt 0.628382 0.139319
vt 0.544669 0.378388
vt 0.333573 0.378388
vt 0.333573 0.278638
vt 0.825778 0.139411
vt 0.977820 0.139319
vt 0.912935 0.628788
vt 0.791725 0.278638
vt 0.819969 0.284179
vt 0.819969 0.292002
vt 0.808270 0.297530
vt 0.808270 0.278643
vt 0.869357 0.139411
vt 0.832284 0.111271
vt 0.808759 0.138187
vt 0.792125 0.130327
vt 0.808760 0.111294
vt 0.780026 0.337326
vt 0.792125 0.119187
vt 0.780151 0.393101
vt 0.662285 0.341184
vt 0.908162 0.055635
vt 0.333573 0.000606
vt 0.250179 0.000390
vt 0.505250 0.378389
vt 0.442525 0.408026
vt 0.468506 0.420303
vt 0.442525 0.390665
vt 0.468506 0.378388
vt 0.365481 0.429873
vt 0.365489 0.378388
vt 0.333573 0.414793
vt 0.333576 0.393468
vt 0.410609 0.429873
vt 0.498227 0.258854
vt 0.628382 0.119487
vt 0.333573 0.258853
vt 0.825778 0.159056
vt 0.333573 0.139319
vn 0.382700 0.019000 0.923700
vn 0.923900 0.003100 0.382700
vn 0.923800 -0.019400 -0.382300
vn 0.382700 -0.035400 -0.923200
vn -0.382700 -0.035400 -0.923200
vn -0.923800 -0.019400 -0.382300
vn -0.000000 -0.999600 0.029400
vn -0.382700 0.019000 0.923700
vn -0.923900 0.003100 0.382700
vn -0.000000 0.999600 -0.029400
vn 0.000000 1.000000 -0.000000
vn 1.000000 0.000000 0.000000
vn -0.000000 -0.997600 0.069200
vn -1.000000 -0.000000 0.000000
vn -0.000000 0.000000 -1.000000
vn -0.000000 0.000000 1.000000
vn 0.923900 -0.382700 0.004800
vn 0.382700 -0.923900 0.004800
vn -0.382700 -0.923900 0.004800
vn -0.923900 -0.382700 0.004800
vn -0.923900 0.382700 0.004800
vn -0.382700 0.923900 0.004800
vn 0.923900 0.382700 0.004800
vn 0.382700 0.923900 0.004800
vn -0.000000 0.968200 0.250200
vn 0.968200 0.000000 0.250200
vn 0.000000 -0.968200 0.250200
vn -0.968200 -0.000000 0.250200
vn 0.923800 0.003100 0.382700
vn -0.923800 0.003100 0.382700
usemtl None
s off
f 1/1/1 2/2/1 4/3/1
f 3/4/2 4/5/2 6/6/2
f 6/6/3 8/7/3 7/8/3
f 7/9/4 8/10/4 10/11/4
f 9/12/5 10/11/5 12/13/5
f 12/14/6 14/15/6 13/16/6
f 4/17/7 2/18/7 16/19/7
f 16/20/8 2/2/8 1/1/8
f 14/15/9 16/21/9 15/22/9
f 15/23/10 1/24/10 3/25/10
f 22/26/11 18/27/11 17/28/11
f 22/29/12 23/30/12 19/31/12
f 24/32/13 20/29/13 19/33/13
f 21/34/14 17/35/14 20/36/14
f 18/36/15 19/37/15 20/38/15
f 23/39/16 22/40/16 21/41/16
f 26/42/17 28/43/17 27/44/17
f 28/45/18 30/46/18 29/47/18
f 30/46/19 32/48/19 31/49/19
f 32/50/20 34/51/20 33/52/20
f 34/51/21 36/53/21 35/54/21
f 36/55/22 38/56/22 37/57/22
f 28/58/16 26/59/16 40/60/16
f 40/61/23 26/42/23 25/62/23
f 38/56/24 40/63/24 39/64/24
f 25/65/15 27/66/15 29/67/15
f 46/68/25 42/69/25 41/70/25
f 47/71/26 43/26/26 42/72/26
f 48/73/27 44/74/27 43/75/27
f 45/76/28 41/70/28 44/69/28
f 42/77/15 43/78/15 44/79/15
f 47/80/16 46/81/16 45/82/16
f 3/83/1 1/1/1 4/3/1
f 5/84/29 3/4/29 6/6/29
f 5/84/3 6/6/3 7/8/3
f 9/12/4 7/9/4 10/11/4
f 11/85/5 9/12/5 12/13/5
f 11/8/6 12/14/6 13/16/6
f 14/86/7 10/87/7 8/88/7
f 6/89/7 14/86/7 8/88/7
f 12/90/7 10/87/7 14/86/7
f 15/91/8 16/20/8 1/1/8
f 6/89/7 4/17/7 14/86/7
f 13/16/30 14/15/30 15/22/30
f 4/17/7 16/19/7 14/86/7
f 13/92/10 5/93/10 7/94/10
f 13/92/10 7/94/10 11/95/10
f 18/96/12 22/29/12 19/31/12
f 5/93/10 15/23/10 3/25/10
f 21/41/11 22/26/11 17/28/11
f 5/93/10 13/92/10 15/23/10
f 7/94/10 9/97/10 11/95/10
f 23/98/13 24/32/13 19/33/13
f 24/99/14 21/34/14 20/36/14
f 17/29/15 18/36/15 20/38/15
f 24/100/16 23/39/16 21/41/16
f 25/62/17 26/42/17 27/44/17
f 27/101/18 28/45/18 29/47/18
f 29/47/19 30/46/19 31/49/19
f 31/64/20 32/50/20 33/52/20
f 33/52/21 34/51/21 35/54/21
f 35/102/22 36/55/22 37/57/22
f 37/57/24 38/56/24 39/64/24
f 30/103/16 28/58/16 36/104/16
f 40/60/16 38/105/16 36/104/16
f 39/54/23 40/61/23 25/62/23
f 34/106/16 32/107/16 30/103/16
f 28/58/16 40/60/16 36/104/16
f 34/106/16 30/103/16 36/104/16
f 25/65/15 33/108/15 39/109/15
f 33/108/15 35/110/15 37/111/15
f 29/67/15 31/112/15 33/108/15
f 45/113/25 46/68/25 41/70/25
f 46/114/26 47/71/26 42/72/26
f 25/65/15 29/67/15 33/108/15
f 33/108/15 37/111/15 39/109/15
f 47/115/27 48/73/27 43/75/27
f 48/116/28 45/76/28 44/69/28
f 41/117/15 42/77/15 44/79/15
f 48/37/16 47/80/16 45/82/16
