# Blender v2.72 (sub 0) OBJ File: 'traffic_pole.blend'
# www.blender.org
mtllib traffic_light.mtl
o Cube.002_Cube.003
v -0.378026 -6.734026 16.436790
v -0.847781 -6.734026 16.436790
v -0.823312 -6.922266 16.358818
v -0.378026 -6.922266 16.358818
v -0.378026 -7.000238 16.170578
v -0.378026 -6.950441 16.165249
v -0.378026 -6.886465 16.319702
v -0.378026 -6.732012 16.383677
v -0.378026 -6.577560 16.319702
v -0.378026 -6.513584 16.165249
v -0.378026 -6.467815 16.170578
v -0.378026 -6.545786 16.358818
v -0.823312 -6.545786 16.358818
v -0.823312 -6.792028 16.358818
v -0.764239 -7.000238 16.170578
v -0.378026 -6.932969 16.051821
v -0.378026 -6.951047 16.051821
v -0.772399 -6.937463 16.196581
v -0.823312 -6.671997 16.358818
v -0.764239 -6.515791 16.170578
v -0.378026 -6.517005 16.051821
v -0.378026 -6.533553 16.051821
v -0.764239 -6.467815 16.170578
v -0.831113 -6.732012 16.383677
v -0.811037 -6.886465 16.319702
v -0.726971 -6.951047 16.051821
v -0.378026 -6.903458 16.051821
v -0.762567 -6.950441 16.165249
v -0.815109 -6.608891 16.332680
v -0.762567 -6.513584 16.165249
v -0.811037 -6.577560 16.319702
v -0.726971 -6.517005 16.051821
v -0.378026 -6.560566 16.051821
v -0.764239 -6.948234 16.170578
v -0.726971 -6.932969 16.051821
v -0.726971 -6.903458 16.051821
v -0.757404 -6.520398 16.148796
v -0.726971 -6.535189 16.051821
v -0.624831 -6.560566 16.051821
v -0.726971 -6.560566 16.051821
v -0.378026 -6.734026 15.280986
v -0.847781 -6.734026 15.280986
v -0.823312 -6.922266 15.203013
v -0.378026 -6.922266 15.203013
v -0.378026 -7.000238 15.014773
v -0.378026 -6.950441 15.009443
v -0.378026 -6.886465 15.163897
v -0.378026 -6.732012 15.227873
v -0.378026 -6.577560 15.163897
v -0.378026 -6.513584 15.009443
v -0.378026 -6.467815 15.014773
v -0.378026 -6.545786 15.203013
v -0.823312 -6.545786 15.203013
v -0.823312 -6.792028 15.203013
v -0.764239 -7.000238 15.014773
v -0.378026 -6.932969 14.896016
v -0.378026 -6.951047 14.896016
v -0.772399 -6.937463 15.040776
v -0.823312 -6.671997 15.203013
v -0.764239 -6.515791 15.014773
v -0.378026 -6.517005 14.896016
v -0.378026 -6.533553 14.896016
v -0.764239 -6.467815 15.014773
v -0.831113 -6.732012 15.227873
v -0.811037 -6.886465 15.163897
v -0.726971 -6.951047 14.896016
v -0.378026 -6.903458 14.896016
v -0.762567 -6.950441 15.009443
v -0.815109 -6.608891 15.176874
v -0.762567 -6.513584 15.009443
v -0.811037 -6.577560 15.163897
v -0.726971 -6.517005 14.896016
v -0.378026 -6.560566 14.896016
v -0.764239 -6.948234 15.014773
v -0.726971 -6.932969 14.896016
v -0.726971 -6.903458 14.896016
v -0.757404 -6.520398 14.992992
v -0.726971 -6.535189 14.896016
v -0.624831 -6.560566 14.896016
v -0.726971 -6.560566 14.896016
v -0.378026 -6.734026 15.870600
v -0.847781 -6.734026 15.870600
v -0.823312 -6.922266 15.792627
v -0.378026 -6.922266 15.792627
v -0.378026 -7.000238 15.604387
v -0.378026 -6.950441 15.599058
v -0.378026 -6.886465 15.753510
v -0.378026 -6.732012 15.817487
v -0.378026 -6.577560 15.753510
v -0.378026 -6.513584 15.599058
v -0.378026 -6.467815 15.604387
v -0.378026 -6.545786 15.792627
v -0.823312 -6.545786 15.792627
v -0.823312 -6.792028 15.792627
v -0.764239 -7.000238 15.604387
v -0.378026 -6.932969 15.485630
v -0.378026 -6.951047 15.485630
v -0.772399 -6.937463 15.630390
v -0.823312 -6.671997 15.792627
v -0.764239 -6.515791 15.604387
v -0.378026 -6.517005 15.485630
v -0.378026 -6.533553 15.485630
v -0.764239 -6.467815 15.604387
v -0.831113 -6.732012 15.817487
v -0.811037 -6.886465 15.753510
v -0.726971 -6.951047 15.485630
v -0.378026 -6.903458 15.485630
v -0.762567 -6.950441 15.599058
v -0.815109 -6.608891 15.766488
v -0.762567 -6.513584 15.599058
v -0.811037 -6.577560 15.753510
v -0.726971 -6.517005 15.485630
v -0.378026 -6.560566 15.485630
v -0.764239 -6.948234 15.604387
v -0.726971 -6.932969 15.485630
v -0.726971 -6.903458 15.485630
v -0.757404 -6.520398 15.582606
v -0.726971 -6.535189 15.485630
v -0.624831 -6.560566 15.485630
v -0.726971 -6.560566 15.485630
v -0.122716 -6.496008 14.768799
v -0.122344 -6.952927 14.768713
v -0.122716 -6.496008 16.604740
v -0.122344 -6.952927 16.604654
v -0.321649 -7.085443 14.768713
v -0.430259 -7.027260 14.768725
v -0.375934 -7.104066 14.768715
v -0.415687 -7.082769 14.768719
v -0.430259 -7.027260 16.604668
v -0.321649 -7.085443 16.604654
v -0.415687 -7.082769 16.604660
v -0.375934 -7.104066 16.604656
v -0.430519 -6.421669 14.768786
v -0.322026 -6.363490 14.768799
v -0.416004 -6.366162 14.768792
v -0.376293 -6.344867 14.768797
v -0.322026 -6.363490 16.604740
v -0.430519 -6.421669 16.604727
v -0.376293 -6.344867 16.604738
v -0.416004 -6.366162 16.604734
vt 0.835681 0.171066
vt 0.893330 0.179977
vt 0.893330 0.342133
vt 0.761399 0.342133
vt 0.761399 0.179977
vt 0.870054 0.895974
vt 0.795470 0.874563
vt 0.795470 0.733995
vt 0.926759 0.319637
vt 0.926759 0.179758
vt 0.928869 0.179144
vt 0.227440 0.806692
vt 0.206669 0.809533
vt 0.206669 0.644536
vt 0.566161 0.981654
vt 0.564613 0.980998
vt 0.564613 0.841039
vt 0.948807 0.002338
vt 0.948807 0.142825
vt 0.893330 0.161976
vt 0.429869 0.744095
vt 0.459793 0.675546
vt 0.459793 0.721506
vt 0.459793 0.812645
vt 0.459793 0.765217
vt 0.474806 0.799607
vt 0.760978 0.732949
vt 0.995828 0.002222
vt 0.469825 0.698526
vt 0.532036 0.822101
vt 0.532036 0.841039
vt 0.522057 0.818179
vt 0.534082 0.822905
vt 0.893330 0.318228
vt 0.159697 0.803705
vt 0.147744 0.802222
vt 0.147744 0.644536
vt 0.558095 0.979127
vt 0.519671 0.968096
vt 0.519671 0.930921
vt 0.540395 0.666300
vt 0.534082 0.663819
vt 0.532036 0.664623
vt 0.577613 0.671686
vt 0.532036 0.647152
vt 0.519671 0.841093
vt 0.474805 0.687116
vt 0.577613 0.816543
vt 0.577613 0.805796
vt 0.577613 0.680928
vt 0.631284 0.771799
vt 0.631284 0.644727
vt 0.637860 0.644727
vt 0.580810 0.681923
vt 0.596658 0.771799
vt 0.590638 0.771799
vt 0.336779 0.668609
vt 0.394428 0.677520
vt 0.394428 0.839676
vt 0.262497 0.839676
vt 0.262497 0.677520
vt 0.256821 0.972558
vt 0.182236 0.951147
vt 0.182236 0.810579
vt 0.033429 0.996085
vt 0.033429 0.856206
vt 0.035539 0.855592
vt 0.681281 0.735790
vt 0.702053 0.732949
vt 0.702053 0.897946
vt 0.308987 0.980291
vt 0.307439 0.979635
vt 0.307439 0.839676
vt 0.917075 0.892587
vt 0.917075 0.752099
vt 0.972551 0.732949
vt 0.648597 0.636005
vt 0.678521 0.567455
vt 0.678521 0.613416
vt 0.678521 0.704555
vt 0.678521 0.657127
vt 0.693533 0.691517
vt 0.147744 0.809533
vt 0.870054 0.892703
vt 0.688553 0.590436
vt 0.750764 0.714011
vt 0.750764 0.732949
vt 0.740785 0.710089
vt 0.752809 0.714815
vt 0.000000 0.994676
vt 0.749024 0.738777
vt 0.760977 0.740260
vt 0.760977 0.897946
vt 0.300921 0.977764
vt 0.262497 0.966733
vt 0.262497 0.929558
vt 0.759123 0.558210
vt 0.752809 0.555728
vt 0.750764 0.556532
vt 0.796341 0.563596
vt 0.750764 0.539061
vt 0.693533 0.579026
vt 0.796341 0.708452
vt 0.796341 0.697706
vt 0.796341 0.572838
vt 0.596658 0.644727
vt 0.603235 0.644727
vt 0.410276 0.758486
vt 0.394428 0.668609
vt 0.400448 0.668609
vt 0.835681 0.000000
vt 0.893330 0.008911
vt 0.893330 0.171066
vt 0.761399 0.171066
vt 0.761399 0.008911
vt 0.905418 0.702086
vt 0.830833 0.680675
vt 0.830833 0.540107
vt 0.938846 0.696722
vt 0.938846 0.556843
vt 0.940956 0.556230
vt 0.794084 0.344974
vt 0.814855 0.342133
vt 0.814855 0.507130
vt 0.476359 0.981654
vt 0.474811 0.980998
vt 0.474811 0.841039
vt 0.920800 0.501771
vt 0.920800 0.361283
vt 0.976277 0.342133
vt 0.000000 0.741480
vt 0.029924 0.672930
vt 0.029924 0.718891
vt 0.029924 0.810030
vt 0.029924 0.762602
vt 0.044937 0.796992
vt 0.796341 0.539061
vt 0.873780 0.501887
vt 0.039956 0.695911
vt 0.102167 0.819486
vt 0.102167 0.838424
vt 0.092188 0.815564
vt 0.104213 0.820290
vt 0.905418 0.695314
vt 0.861827 0.347961
vt 0.873780 0.349444
vt 0.873780 0.507130
vt 0.468293 0.979127
vt 0.429869 0.968096
vt 0.429869 0.930921
vt 0.110527 0.663685
vt 0.104213 0.661203
vt 0.102167 0.662007
vt 0.147744 0.669071
vt 0.102167 0.644536
vt 0.429869 0.841093
vt 0.044937 0.684501
vt 0.147744 0.813927
vt 0.147744 0.803181
vt 0.147744 0.678313
vt 0.613971 0.771799
vt 0.613971 0.644727
vt 0.620547 0.644727
vt 0.410276 0.705805
vt 0.426123 0.795682
vt 0.420103 0.795682
vt 0.761399 0.027787
vt 0.761399 0.246811
vt 0.648661 0.219875
vt 0.262497 0.000000
vt 0.429869 0.000031
vt 0.429869 0.668609
vt 0.020332 0.644536
vt 0.020332 0.001499
vt 0.242163 0.001455
vt 0.573935 0.628811
vt 0.573935 0.002120
vt 0.648597 0.018036
vt 0.242164 0.644492
vt 0.539544 0.629570
vt 0.539544 0.002878
vt 0.553824 0.000000
vt 0.553824 0.626691
vt 0.648597 0.486448
vt 0.648661 0.327275
vt 0.761399 0.512296
vt 0.000000 0.643091
vt 0.539544 0.013956
vt 0.539544 0.644328
vt 0.525405 0.647152
vt 0.525405 0.016779
vt 0.505211 0.645224
vt 0.429869 0.630373
vt 0.505211 0.014851
vt 0.835681 0.342133
vt 0.870054 0.733906
vt 0.939165 0.176151
vt 0.987913 0.161976
vt 0.987913 0.319486
vt 0.609473 1.000000
vt 0.609473 0.842399
vt 0.260125 0.802222
vt 0.260125 0.644536
vt 0.893330 0.000000
vt 0.450253 0.743362
vt 0.760978 0.859952
vt 0.995828 0.129153
vt 0.577613 0.823126
vt 0.893330 0.191297
vt 0.183773 0.806692
vt 0.577613 0.665065
vt 0.637860 0.771799
vt 0.648597 0.644727
vt 0.648597 0.771799
vt 0.580810 0.644727
vt 0.590043 0.644727
vt 0.580810 0.771799
vt 0.336779 0.839676
vt 0.256821 0.810490
vt 0.045834 0.852599
vt 0.094582 0.838424
vt 0.094582 0.995934
vt 0.648597 0.740260
vt 0.648597 0.897946
vt 0.352299 0.998637
vt 0.352299 0.841036
vt 0.972551 0.894925
vt 0.668980 0.635272
vt 0.147744 0.936536
vt 0.870054 0.765772
vt 0.796341 0.715036
vt 0.000000 0.867745
vt 0.724949 0.735790
vt 0.796341 0.556975
vt 0.603235 0.771799
vt 0.410276 0.795682
vt 0.401043 0.795682
vt 0.394428 0.795682
vt 0.410276 0.668610
vt 0.905418 0.540018
vt 0.951252 0.553236
vt 1.000000 0.539061
vt 1.000000 0.696572
vt 0.519671 1.000000
vt 0.519671 0.842399
vt 0.761399 0.349444
vt 0.761399 0.507130
vt 0.976277 0.504109
vt 0.020384 0.740747
vt 0.796341 0.666065
vt 0.873780 0.374956
vt 0.147744 0.820511
vt 0.905418 0.568383
vt 0.837752 0.344974
vt 0.147744 0.662450
vt 0.620547 0.771799
vt 0.419508 0.668610
vt 0.426123 0.668610
vt 0.648597 0.054623
vt 0.721624 0.006727
vt 0.741511 0.000000
vt 0.756070 0.007708
vt 0.721649 0.267835
vt 0.756073 0.266883
vt 0.741524 0.274579
vt 0.262497 0.668578
vt 0.262497 0.643037
vt 0.721624 0.532582
vt 0.756070 0.531636
vt 0.756073 0.281991
vt 0.761399 0.301325
vt 0.721648 0.281076
vt 0.741511 0.539061
vt 0.000000 0.000054
vn -0.000000 -0.382700 0.923900
vn -0.000000 0.382700 0.923900
vn -0.000000 -0.923900 0.382700
vn -0.000000 0.923800 -0.382800
vn -0.000000 0.382700 -0.923900
vn 0.000000 -0.923900 -0.382700
vn -0.000000 0.923900 0.382700
vn -0.954100 0.000000 -0.299400
vn -0.000000 0.923900 -0.382700
vn -0.954100 0.000000 -0.299500
vn 0.000000 -0.382700 -0.923900
vn 0.954100 -0.000100 0.299400
vn -0.000000 0.000000 -1.000000
vn -0.954200 -0.000000 -0.299300
vn 0.954100 0.000000 0.299400
vn 0.000100 0.000100 -1.000000
vn 1.000000 0.000800 -0.000000
vn -1.000000 -0.000400 0.000000
vn 0.553700 -0.832700 -0.000000
vn -0.967200 -0.253900 0.000000
vn -0.472200 -0.881500 0.000000
vn 0.324500 -0.945900 0.000000
vn 0.000100 -0.000200 1.000000
vn -0.967500 0.253000 -0.000000
vn -0.472600 0.881300 -0.000000
vn 0.324600 0.945900 -0.000000
vn 0.553700 0.832700 0.000000
vn -0.000100 -0.923900 0.382600
vn 0.000000 0.923900 -0.382600
vn -0.000100 -0.923900 0.382700
vn 0.000000 -0.923900 0.382600
vn -0.000100 0.000200 -1.000000
vn -0.000100 0.000100 -1.000000
vn -0.000000 0.000100 -1.000000
vn 0.000100 -0.000100 1.000000
vn 0.000000 -0.000100 1.000000
vn -0.000100 -0.000100 1.000000
usemtl None
s off
f 2/1/1 3/2/1 4/3/1
f 12/4/2 13/5/2 2/1/2
f 3/6/3 15/7/3 5/8/3
f 6/9/4 28/10/4 34/11/4
f 14/12/5 24/13/5 8/14/5
f 20/15/6 30/16/6 10/17/6
f 11/18/7 23/19/7 13/20/7
f 2/21/8 13/22/8 19/23/8
f 3/24/8 14/25/8 25/26/8
f 17/27/6 5/8/6 15/7/6
f 23/19/9 11/18/9 21/28/9
f 19/23/8 13/22/8 29/29/8
f 34/30/8 15/31/8 18/32/8
f 15/31/10 34/30/10 28/33/10
f 28/10/7 6/9/7 27/34/7
f 29/35/11 31/36/11 9/37/11
f 37/38/3 40/39/3 39/40/3
f 37/41/12 30/42/12 20/43/12
f 38/44/8 37/41/8 23/45/8
f 33/46/3 10/17/3 39/40/3
f 31/47/8 29/29/8 13/22/8
f 35/48/8 28/33/8 36/49/8
f 40/50/8 37/41/8 38/44/8
f 17/51/13 26/52/13 35/53/13
f 39/54/13 21/55/13 22/56/13
f 42/57/1 43/58/1 44/59/1
f 52/60/2 53/61/2 42/57/2
f 43/62/3 55/63/3 45/64/3
f 46/65/9 68/66/9 74/67/9
f 54/68/5 64/69/5 48/70/5
f 60/71/6 70/72/6 50/73/6
f 51/74/7 63/75/7 53/76/7
f 42/77/8 53/78/8 59/79/8
f 43/80/8 54/81/8 65/82/8
f 57/83/6 45/64/6 55/63/6
f 63/75/9 51/74/9 61/84/9
f 59/79/8 53/78/8 69/85/8
f 74/86/8 55/87/8 58/88/8
f 55/87/14 74/86/14 68/89/14
f 68/66/7 46/65/7 67/90/7
f 69/91/11 71/92/11 49/93/11
f 77/94/3 80/95/3 79/96/3
f 77/97/15 70/98/15 60/99/15
f 78/100/8 77/97/8 63/101/8
f 73/60/3 50/73/3 79/96/3
f 71/102/8 69/85/8 53/78/8
f 75/103/8 68/89/8 76/104/8
f 80/105/8 77/97/8 78/100/8
f 57/55/13 66/106/13 75/107/13
f 79/108/13 61/109/13 62/110/13
f 82/111/1 83/112/1 84/113/1
f 92/114/2 93/115/2 82/111/2
f 83/116/3 95/117/3 85/118/3
f 86/119/4 108/120/4 114/121/4
f 94/122/5 104/123/5 88/124/5
f 100/125/6 110/126/6 90/127/6
f 91/128/7 103/129/7 93/130/7
f 82/131/8 93/132/8 99/133/8
f 83/134/8 94/135/8 105/136/8
f 97/137/6 85/118/6 95/117/6
f 103/129/9 91/128/9 101/138/9
f 99/133/8 93/132/8 109/139/8
f 114/140/8 95/141/8 98/142/8
f 95/141/10 114/140/10 108/143/10
f 108/120/7 86/119/7 107/144/7
f 109/145/11 111/146/11 89/147/11
f 117/148/3 120/149/3 119/150/3
f 117/151/15 110/152/15 100/153/15
f 118/154/8 117/151/8 103/155/8
f 113/156/3 90/127/3 119/150/3
f 111/157/8 109/139/8 93/132/8
f 115/158/8 108/143/8 116/159/8
f 120/160/8 117/151/8 118/154/8
f 97/161/13 106/162/13 115/163/13
f 119/164/13 101/165/13 102/166/13
f 126/167/16 133/168/16 121/169/16
f 123/170/17 124/171/17 122/172/17
f 138/173/18 133/174/18 126/175/18
f 130/176/19 125/177/19 122/178/19
f 129/179/20 126/175/20 128/170/20
f 131/180/21 128/181/21 127/182/21
f 132/183/22 127/182/22 125/177/22
f 124/184/23 123/185/23 129/186/23
f 133/174/24 138/173/24 140/187/24
f 135/188/25 140/189/25 139/190/25
f 136/191/26 139/190/26 137/192/26
f 123/193/27 121/171/27 134/194/27
f 1/195/1 2/1/1 4/3/1
f 1/195/2 12/4/2 2/1/2
f 4/196/3 3/6/3 5/8/3
f 18/197/9 25/198/9 7/199/9
f 18/197/9 6/9/9 34/11/9
f 31/200/6 20/15/6 9/201/6
f 25/202/5 14/12/5 7/203/5
f 18/197/9 7/199/9 6/9/9
f 12/204/7 11/18/7 13/20/7
f 14/12/5 8/14/5 7/203/5
f 14/25/8 3/24/8 2/21/8
f 20/15/6 10/17/6 9/201/6
f 15/31/8 3/24/8 18/32/8
f 24/205/8 14/25/8 2/21/8
f 19/23/8 24/205/8 2/21/8
f 26/206/6 17/27/6 15/7/6
f 32/207/9 23/19/9 21/28/9
f 3/24/8 25/26/8 18/32/8
f 28/33/8 35/48/8 26/208/8
f 36/209/7 28/10/7 27/34/7
f 26/208/8 15/31/8 28/33/8
f 8/14/11 24/13/11 19/210/11
f 39/40/3 10/17/3 30/16/3
f 8/14/11 19/210/11 29/35/11
f 9/37/11 8/14/11 29/35/11
f 23/45/8 37/41/8 20/43/8
f 30/16/28 37/38/28 39/40/28
f 32/211/8 38/44/8 23/45/8
f 23/45/8 20/43/8 31/47/8
f 17/51/13 35/53/13 16/212/13
f 13/22/8 23/45/8 31/47/8
f 35/53/13 36/213/13 27/214/13
f 39/54/13 40/215/13 38/216/13
f 21/55/13 39/54/13 32/106/13
f 35/53/13 27/214/13 16/212/13
f 33/217/13 39/54/13 22/56/13
f 41/218/1 42/57/1 44/59/1
f 39/54/13 38/216/13 32/106/13
f 41/218/2 52/60/2 42/57/2
f 44/219/3 43/62/3 45/64/3
f 58/220/9 65/221/9 47/222/9
f 65/223/5 54/68/5 47/224/5
f 47/222/9 46/65/9 58/220/9
f 71/225/6 60/71/6 49/226/6
f 46/65/29 74/67/29 58/220/29
f 52/227/7 51/74/7 53/76/7
f 54/68/5 48/70/5 47/224/5
f 54/81/8 43/80/8 42/77/8
f 60/71/6 50/73/6 49/226/6
f 55/87/8 43/80/8 58/88/8
f 64/228/8 54/81/8 42/77/8
f 59/79/8 64/228/8 42/77/8
f 66/229/6 57/83/6 55/63/6
f 72/230/9 63/75/9 61/84/9
f 43/80/8 65/82/8 58/88/8
f 68/89/8 75/103/8 66/231/8
f 76/232/7 68/66/7 67/90/7
f 66/231/8 55/87/8 68/89/8
f 48/70/11 64/69/11 59/233/11
f 79/96/3 50/73/3 70/72/3
f 48/70/11 59/233/11 69/91/11
f 49/93/11 48/70/11 69/91/11
f 63/101/8 77/97/8 60/99/8
f 70/72/30 77/94/30 79/96/30
f 72/234/8 78/100/8 63/101/8
f 63/101/8 60/99/8 71/102/8
f 57/55/13 75/107/13 56/235/13
f 53/78/8 63/101/8 71/102/8
f 75/107/13 76/162/13 67/161/13
f 79/108/13 80/236/13 78/237/13
f 61/109/13 79/108/13 72/238/13
f 75/107/13 67/161/13 56/235/13
f 73/239/13 79/108/13 62/110/13
f 81/1/1 82/111/1 84/113/1
f 79/108/13 78/237/13 72/238/13
f 81/1/2 92/114/2 82/111/2
f 84/240/3 83/116/3 85/118/3
f 98/241/9 105/242/9 87/243/9
f 98/241/9 86/119/9 114/121/9
f 111/244/6 100/125/6 89/245/6
f 105/246/5 94/122/5 87/247/5
f 98/241/9 87/243/9 86/119/9
f 92/248/7 91/128/7 93/130/7
f 94/122/5 88/124/5 87/247/5
f 94/135/8 83/134/8 82/131/8
f 100/125/6 90/127/6 89/245/6
f 95/141/8 83/134/8 98/142/8
f 104/249/8 94/135/8 82/131/8
f 99/133/8 104/249/8 82/131/8
f 106/250/6 97/137/6 95/117/6
f 112/251/9 103/129/9 101/138/9
f 83/134/8 105/136/8 98/142/8
f 108/143/8 115/158/8 106/252/8
f 116/253/7 108/120/7 107/144/7
f 106/252/8 95/141/8 108/143/8
f 88/124/11 104/123/11 99/254/11
f 119/150/3 90/127/3 110/126/3
f 88/124/11 99/254/11 109/145/11
f 89/147/11 88/124/11 109/145/11
f 103/155/8 117/151/8 100/153/8
f 110/126/31 117/148/31 119/150/31
f 112/255/8 118/154/8 103/155/8
f 103/155/8 100/153/8 111/157/8
f 97/161/13 115/163/13 96/256/13
f 93/132/8 103/155/8 111/157/8
f 115/163/13 116/52/13 107/51/13
f 119/164/13 120/239/13 118/257/13
f 101/165/13 119/164/13 112/258/13
f 115/163/13 107/51/13 96/256/13
f 113/236/13 119/164/13 102/166/13
f 126/167/32 121/169/32 122/259/32
f 119/164/13 118/257/13 112/258/13
f 125/260/33 127/261/33 128/262/33
f 125/260/33 126/167/33 122/259/33
f 121/169/16 133/168/16 134/263/16
f 133/168/34 135/264/34 136/265/34
f 133/168/16 136/265/16 134/263/16
f 129/179/18 138/173/18 126/175/18
f 125/260/33 128/262/33 126/167/33
f 121/266/17 123/170/17 122/172/17
f 124/213/19 130/176/19 122/178/19
f 131/267/20 129/179/20 128/170/20
f 132/183/21 131/180/21 127/182/21
f 130/176/22 132/183/22 125/177/22
f 130/268/35 129/186/35 131/269/35
f 140/270/36 138/271/36 139/265/36
f 137/272/37 138/271/37 123/185/37
f 124/184/35 129/186/35 130/268/35
f 132/273/36 130/268/36 131/269/36
f 138/271/37 137/272/37 139/265/37
f 123/185/37 138/271/37 129/186/37
f 136/191/25 135/188/25 139/190/25
f 135/274/24 133/174/24 140/187/24
f 134/194/26 136/191/26 137/192/26
f 137/192/27 123/193/27 134/194/27
